# xmcd
#
# Track frame offsets: 
#        150
#        20772
#        43962
#        66875
#        95060
#        116675
#        132295
#        151275
#        174512
#        194137
#        215757
#        226745
#        246702
#        268837
#        301302
#
# Disc length: 4280 seconds
#
# Revision: 20
# Processed by: cddbd v1.5.2PL0 Copyright (c) Steve Scherf et al.
# Submitted via: ExactAudioCopy v1.0b3
#
DISCID=ea10b60f
DTITLE=山下達郎 - RARITIES
DYEAR=2002
DGENRE=JPop
TTITLE0=BLOW
TTITLE1=君の声に恋してる
TTITLE2=LOVE GOES ON (その瞳は女神)
TTITLE3=HAPPY HAPPY GREETING (ORIGINAL DEMO VERSION)
TTITLE4=MISTY MAUVE
TTITLE5=TO WAIT FOR LOVE
TTITLE6=好・き・好・き SWEET KISS!
TTITLE7=潮騒: LIVE VERSION
TTITLE8=モーニング・シャイン
TTITLE9=FIRST LUCK -初めての幸運(しあわせ)-
TTITLE10=I DO
TTITLE11=ヘロン (GUITAR INSTRUMENTAL)
TTITLE12=JUVENILEのテーマ ~瞳の中のRAINBOW~
TTITLE13=スプリンクラー (LONG VERSION)
TTITLE14=いつか晴れた日に (STAND ALONE VERSION)
EXTD=YEAR: 2002
EXTT0=
EXTT1=
EXTT2=
EXTT3=
EXTT4=
EXTT5=
EXTT6=
EXTT7=
EXTT8=
EXTT9=
EXTT10=
EXTT11=
EXTT12=
EXTT13=
EXTT14=
PLAYORDER=
